<?xml version="1.0" encoding="utf-8"?>
<!-- Generator: Adobe Illustrator 26.5.0, SVG Export Plug-In . SVG Version: 6.00 Build 0)  -->
<svg version="1.1" id="Calque_1" xmlns="http://www.w3.org/2000/svg" xmlns:xlink="http://www.w3.org/1999/xlink" x="0px" y="0px"
	 viewBox="0 0 595.28 841.89" style="enable-background:new 0 0 595.28 841.89;" xml:space="preserve">
<style type="text/css">
	.st0{fill:#14C2EE;}
</style>
<g>
	<g>
		<path class="st0" d="M303.97,579.35c-58.35,0-116.69,0.01-175.04-0.01c-12.5,0-13.25-0.81-13.28-13.49
			c-0.18-74.39,49.96-134.71,122.96-147.77c5.85-1.05,11.84-1.87,17.76-1.83c35.42,0.22,70.96-0.93,106.24,1.5
			c62.48,4.3,119.02,58.91,127.6,120.86c1.2,8.66,1.75,17.45,1.94,26.2c0.32,14.02-0.39,14.53-14.08,14.53
			C420.04,579.35,362.01,579.35,303.97,579.35z"/>
		<path class="st0" d="M395.21,292.2c0.04,49.75-40.68,90.83-90.12,90.93c-49.84,0.1-91.05-41.07-91.15-91.06
			c-0.1-49.18,41.54-90.61,90.79-90.34C354.68,202,395.17,242.5,395.21,292.2z"/>
	</g>
</g>
</svg>
