<?xml version="1.0" encoding="utf-8"?>
<!-- Generator: Adobe Illustrator 26.5.0, SVG Export Plug-In . SVG Version: 6.00 Build 0)  -->
<svg version="1.1" id="Calque_1" xmlns="http://www.w3.org/2000/svg" xmlns:xlink="http://www.w3.org/1999/xlink" x="0px" y="0px"
	 viewBox="0 0 595.28 841.89" style="enable-background:new 0 0 595.28 841.89;" xml:space="preserve">
<style type="text/css">
	.st0{fill:#6EA3D7;}
</style>
<g>
	<g>
		<path class="st0" d="M282.8,634.74c-14.08-18.35-27.96-36.1-41.48-54.12c-32.28-43.02-61.92-87.76-86.82-135.48
			c-15.92-30.5-30.45-61.72-37.22-95.7c-12.09-60.72,4.71-113.17,48.73-156.18c36.28-35.45,80.92-50.76,131.32-46.6
			c49.25,4.06,89.35,26.45,120.02,65.32c20.03,25.39,31.24,54.48,34.84,86.44c2.54,22.52-0.64,44.58-7.32,66.16
			c-12.96,41.83-33.09,80.32-55.28,117.82c-31.04,52.45-66.55,101.8-104.22,149.64C284.87,632.69,284.24,633.24,282.8,634.74z
			 M355.34,317.45c1.78-37.43-25.97-72.05-67.05-75.45c-38.22-3.16-74,26.88-77.11,64.65c-3.38,41.06,25.38,76.29,65.54,79.63
			C319.11,389.79,353.64,357.7,355.34,317.45z"/>
	</g>
</g>
</svg>
